<?xml version="1.0" standalone="no"?>
<!DOCTYPE svg PUBLIC "-//W3C//DTD SVG 20010904//EN"
 "http://www.w3.org/TR/2001/REC-SVG-20010904/DTD/svg10.dtd">
<svg version="1.0" xmlns="http://www.w3.org/2000/svg"
 width="626.000000pt" height="626.000000pt" viewBox="0 0 626.000000 626.000000"
 preserveAspectRatio="xMidYMid meet">
<metadata>
Created by potrace 1.14, written by Peter Selinger 2001-2017
</metadata>
<g transform="translate(0.000000,626.000000) scale(0.100000,-0.100000)"
fill="#000000" stroke="none">
<path d="M2766 5774 c4 -22 13 -49 21 -61 11 -17 11 -22 1 -26 -9 -3 -6 -12
11 -31 14 -14 29 -26 33 -26 5 0 30 -14 56 -32 59 -39 56 -37 50 -43 -3 -3
-60 22 -127 56 -99 50 -124 59 -136 49 -12 -10 -25 -9 -64 4 -28 9 -62 16 -77
16 -21 0 -25 -4 -21 -20 5 -19 0 -20 -61 -20 -68 0 -136 -24 -164 -57 -11 -14
-11 -15 7 -6 95 49 83 49 212 7 109 -35 130 -38 270 -44 178 -6 188 -11 218
-111 10 -33 22 -62 27 -65 4 -3 8 -13 8 -22 0 -9 12 -42 26 -72 15 -30 28 -68
30 -85 2 -16 9 -34 14 -39 17 -17 11 -34 -16 -40 -21 -6 -46 8 -142 75 -64 46
-131 92 -149 103 -18 12 -32 25 -33 30 0 5 8 2 18 -5 14 -11 14 -10 -2 8 -10
13 -23 20 -28 16 -6 -3 -14 1 -19 8 -14 23 -10 32 9 18 9 -7 7 -2 -6 12 -16
19 -31 25 -54 24 -25 -2 -46 9 -95 47 -35 28 -63 46 -63 41 0 -4 -5 0 -11 10
-6 9 -15 15 -20 11 -5 -3 -9 -2 -7 3 2 10 -82 103 -94 103 -4 0 -9 -26 -9 -57
l-2 -58 -10 48 c-6 26 -15 46 -21 44 -21 -7 -76 -112 -87 -166 -6 -30 -9 -80
-6 -111 5 -44 4 -50 -4 -30 -6 14 -9 58 -6 102 5 72 4 77 -17 82 -31 8 -48 7
-42 -2 3 -5 -22 -16 -55 -26 -77 -21 -124 -51 -182 -116 -51 -56 -68 -100 -66
-170 2 -44 2 -44 9 13 9 70 14 77 30 40 l13 -29 22 22 c25 24 81 43 142 47 33
2 38 -1 41 -21 3 -22 1 -23 -55 -21 -32 1 -73 -1 -90 -5 -42 -10 -43 -30 -3
-116 30 -64 30 -65 4 -35 l-25 30 15 -38 c9 -21 15 -41 14 -45 -1 -4 3 -17 10
-30 12 -21 9 -27 -34 -75 -26 -29 -62 -74 -80 -102 -40 -59 -46 -44 -7 18 30
48 19 42 -60 -32 -47 -45 -87 -107 -87 -133 1 -7 7 2 16 21 21 48 29 31 10
-21 -17 -46 -16 -115 3 -162 11 -28 12 -28 33 -10 21 19 21 19 10 -1 -6 -13
-8 -48 -4 -94 l7 -74 39 70 c21 39 52 81 68 93 l30 22 -7 -23 c-5 -13 -23 -59
-41 -101 -37 -86 -28 -104 22 -45 25 29 26 30 19 7 -4 -14 -16 -39 -26 -56
-25 -41 -24 -45 9 -34 l27 10 -27 -21 c-35 -26 -36 -41 -3 -33 26 6 33 -4 14
-23 -16 -16 -3 -30 28 -31 34 0 56 15 89 59 13 18 24 29 24 23 0 -20 -34 -57
-78 -85 -27 -17 -39 -29 -28 -29 9 0 14 -4 11 -10 -3 -5 -21 -10 -38 -10 -18
0 -27 -4 -22 -8 16 -12 15 -44 -1 -38 -12 5 -12 2 -3 -15 8 -17 7 -24 -8 -36
-16 -13 -16 -14 0 -9 9 3 17 1 17 -4 0 -5 -9 -11 -19 -15 -12 -4 -18 -12 -14
-21 3 -7 0 -14 -6 -14 -6 0 -11 -9 -11 -19 0 -11 -12 -30 -27 -43 -45 -38 -53
-53 -62 -108 -12 -75 4 -198 40 -304 44 -131 132 -308 169 -339 30 -26 96 -51
111 -42 4 3 19 -47 34 -111 23 -98 63 -230 90 -296 5 -13 -5 -20 -50 -37 -129
-49 -213 -113 -359 -276 -78 -88 -117 -146 -140 -210 -13 -37 -34 -65 -79
-107 l-62 -57 54 20 c29 11 56 18 59 15 3 -3 -2 -8 -10 -11 -10 -4 -14 -14
-11 -26 7 -27 -33 -68 -122 -126 -115 -75 -145 -121 -145 -226 l0 -47 40 25
c42 27 109 34 111 13 3 -27 -3 -44 -21 -58 -22 -18 -63 -91 -79 -142 -10 -31
-21 -42 -59 -59 -26 -11 -52 -22 -59 -23 -7 -1 -16 -6 -20 -11 -4 -4 -2 -5 5
-1 6 4 12 3 12 -3 0 -5 -9 -9 -20 -8 -14 1 -19 6 -15 17 3 8 -15 -7 -40 -35
-24 -27 -45 -43 -45 -35 0 11 -3 11 -12 2 -7 -7 -24 -12 -39 -12 -75 0 -192
-95 -239 -193 -11 -23 -15 -33 -8 -23 23 35 91 107 112 118 48 26 145 2 178
-44 21 -30 21 -31 3 -44 -10 -8 -28 -14 -39 -14 -12 0 -55 -7 -96 -15 -111
-23 -136 -60 -111 -167 8 -35 7 -38 -30 -63 -43 -28 -47 -40 -24 -65 14 -16
13 -23 -13 -81 -31 -69 -71 -187 -153 -454 -28 -94 -54 -176 -56 -182 -4 -10
457 -13 2286 -13 l2291 0 -4 23 c-3 12 -19 98 -36 192 -47 258 -123 561 -172
683 -17 43 -25 53 -39 49 -13 -3 -17 -1 -12 6 4 7 0 6 -10 -1 -14 -12 -17 -11
-22 10 -3 12 -7 37 -8 53 -4 38 -15 57 -28 49 -6 -4 -6 -11 2 -20 9 -11 7 -14
-12 -14 -13 0 -29 4 -35 8 -7 4 -41 66 -77 137 -35 72 -72 145 -82 164 -17 33
-17 35 4 95 25 71 27 133 7 201 -19 62 -83 158 -99 149 -7 -4 -9 -4 -5 1 4 4
-8 25 -27 47 -19 21 -35 44 -35 52 0 19 -92 158 -163 245 -91 111 -203 216
-294 278 -46 30 -83 59 -83 63 0 5 25 56 55 113 70 132 97 211 124 367 12 69
26 139 31 155 9 30 16 272 7 281 -2 2 -7 -33 -10 -78 -3 -46 -13 -103 -21
-128 -30 -91 -45 -125 -55 -122 -6 1 -11 -4 -11 -11 0 -7 -9 -19 -20 -27 -11
-8 -20 -20 -20 -28 0 -16 -29 -47 -44 -47 -6 -1 -10 -6 -9 -11 1 -6 -3 -11
-10 -12 -7 -1 -25 -3 -40 -5 -18 -2 -33 -12 -41 -27 -7 -14 -18 -24 -24 -22
-7 1 -12 -5 -12 -14 0 -8 -4 -13 -9 -9 -5 3 -11 -2 -13 -10 -6 -32 -56 32 -74
96 -9 33 -23 63 -31 66 -7 3 -13 11 -13 19 0 15 -29 33 -63 40 -38 7 -190 17
-245 15 -64 -2 -61 13 7 29 50 12 102 52 82 64 -17 11 -94 9 -125 -3 -49 -19
-153 -3 -213 32 -29 17 -53 35 -53 39 0 4 -7 8 -15 8 -8 0 -15 5 -15 10 0 6
-16 10 -35 10 -24 0 -37 6 -45 20 -9 17 -4 27 30 64 35 38 43 54 50 108 23
160 50 301 61 314 8 10 34 14 81 14 l69 0 19 -42 c11 -24 20 -49 20 -57 0 -7
21 -63 47 -124 71 -169 122 -215 263 -236 107 -16 274 9 255 39 -3 4 16 15 43
24 98 33 142 90 198 256 l29 85 7 -80 c3 -44 4 -83 1 -87 -2 -5 0 -8 5 -8 6 0
15 15 22 33 7 17 14 26 17 20 7 -18 30 -16 37 3 10 26 7 76 -4 69 -6 -4 -10
38 -10 118 0 115 2 127 24 160 13 19 27 50 31 68 3 19 33 88 65 154 66 135
133 357 132 440 -1 103 -73 211 -167 251 l-40 16 53 -47 c35 -32 62 -69 86
-118 48 -99 55 -135 16 -73 -53 81 -124 142 -202 172 -49 19 -66 29 -57 35 12
7 11 11 -1 19 -11 7 0 10 40 11 66 1 41 17 -29 18 -35 1 -42 4 -37 17 3 9 6
25 6 36 0 19 4 20 58 15 71 -6 132 -35 191 -91 43 -40 43 -40 25 -9 -39 68
-113 124 -184 138 -72 14 -69 9 -54 73 17 70 18 207 3 251 -13 38 -28 26 -30
-24 -1 -22 -4 -17 -9 18 -10 55 -17 68 -29 48 -5 -7 -14 -10 -20 -7 -12 8 -48
83 -75 156 -9 25 -39 71 -66 102 -42 47 -54 56 -72 49 -13 -5 -33 -1 -56 11
-33 16 -92 25 -92 13 0 -3 15 -25 34 -49 50 -66 116 -220 86 -201 -5 3 -10 -1
-10 -9 0 -27 -14 -18 -75 50 -80 89 -161 169 -210 207 -33 25 -29 19 21 -34
34 -35 86 -98 116 -139 30 -41 104 -124 165 -185 97 -96 173 -199 173 -230 -1
-5 -8 4 -17 20 -21 37 -28 16 -14 -44 5 -23 6 -53 2 -67 -6 -24 -8 -23 -31 27
-60 129 -237 348 -272 337 -7 -3 -14 -21 -16 -41 -3 -35 -5 -37 -37 -37 -19 0
-37 -4 -40 -10 -14 -23 -44 -5 -125 78 -144 149 -232 204 -351 217 -42 5 -50
4 -36 -5 33 -21 17 -29 -30 -15 -27 8 -61 15 -78 15 -157 1 48 58 220 61 94 1
102 3 54 9 -30 4 -64 12 -75 18 -16 10 -14 12 21 13 41 1 37 3 -27 14 -21 3
-38 10 -38 15 0 6 17 11 38 11 20 1 -21 8 -93 15 -71 7 -174 23 -228 34 -53
12 -102 18 -109 14 -7 -4 -8 -3 -4 4 4 7 3 12 -3 12 -5 0 -17 3 -26 6 -14 6
-15 1 -9 -32z m357 -312 c96 -64 163 -128 201 -194 l19 -33 -21 18 c-20 19
-21 18 -15 -5 4 -17 -5 -11 -38 27 -85 96 -90 99 -31 20 32 -44 62 -87 67 -95
14 -25 -118 102 -147 142 -15 20 -61 71 -102 113 -42 42 -76 79 -76 81 0 13
53 -15 143 -74z m-736 6 c-3 -8 -6 -5 -6 6 -1 11 2 17 5 13 3 -3 4 -12 1 -19z
m1813 -588 c0 -5 -5 -10 -11 -10 -5 0 -7 5 -4 10 3 6 8 10 11 10 2 0 4 -4 4
-10z m-215 -134 c22 0 47 3 55 7 13 6 20 -16 42 -130 15 -76 30 -158 33 -183
4 -25 19 -115 35 -200 16 -85 31 -176 33 -202 4 -45 3 -47 -17 -42 -111 28
-157 42 -135 43 15 1 31 7 37 14 15 18 -23 74 -76 111 -38 26 -148 60 -164 50
-5 -3 -8 -1 -8 4 0 5 -19 12 -42 15 -24 3 -95 14 -158 25 -197 34 -227 36
-239 13 -6 -11 -11 -45 -11 -76 0 -55 1 -58 47 -99 25 -22 58 -52 72 -65 l25
-24 -85 -39 c-82 -39 -86 -39 -181 -36 -53 2 -102 8 -107 13 -6 6 -19 44 -29
85 -15 59 -16 76 -6 78 7 2 16 12 19 23 10 30 -5 116 -23 140 -17 20 -19 20
-132 4 -63 -8 -135 -20 -160 -25 -25 -5 -62 -13 -83 -16 -21 -3 -61 -12 -90
-20 -29 -8 -67 -19 -85 -23 -18 -5 -40 -15 -49 -23 -15 -12 -16 -6 -11 68 7
91 22 129 76 184 51 51 104 84 193 119 66 26 305 96 419 122 195 44 358 71
475 80 77 5 145 12 150 14 6 2 39 1 75 -3 36 -4 83 -7 105 -6z m259 -27 c59
-16 112 -54 151 -107 45 -62 44 -75 -2 -30 -24 23 -63 45 -105 59 -36 13 -65
26 -62 30 2 3 -5 14 -16 24 -20 18 -26 35 -12 35 4 0 25 -5 46 -11z m145 -190
c33 -35 56 -78 66 -129 l7 -35 -27 35 c-36 48 -57 89 -50 100 3 5 1 11 -5 15
-12 7 -33 45 -25 45 2 0 18 -14 34 -31z m-1991 -321 c23 -23 14 -105 -18 -167
-28 -56 -33 -60 -87 -78 l-58 -20 -5 -60 c-6 -79 -20 -92 -21 -22 l-1 54 -13
-45 c-7 -25 -13 -39 -14 -32 -1 8 -9 10 -24 7 -15 -4 -28 -1 -36 9 -7 9 -17
14 -21 11 -5 -3 -11 -1 -15 5 -3 5 -21 10 -38 11 -21 0 2 9 62 24 51 14 95 26
96 27 1 2 21 48 45 103 42 98 66 147 84 173 11 15 48 16 64 0z m-379 -24 c-12
-15 -61 -44 -74 -44 -15 0 9 22 43 40 45 24 48 24 31 4z m1873 -244 c27 -13
45 -17 52 -10 6 6 1 13 -15 19 -24 10 -23 10 6 10 17 0 62 -6 100 -14 99 -21
120 -45 111 -135 -14 -148 -73 -295 -136 -336 -58 -38 -159 -57 -285 -52 -134
5 -181 25 -219 90 -37 65 -67 173 -73 269 -5 79 -4 87 16 106 18 17 116 53
144 53 3 0 -15 -21 -41 -46 -26 -25 -37 -41 -25 -35 35 18 45 14 32 -10 -16
-31 -5 -97 23 -126 22 -24 27 -25 102 -20 92 6 115 22 122 83 4 27 -1 51 -15
78 -11 22 -20 41 -18 42 5 6 83 -27 108 -45 30 -22 49 -27 49 -12 0 18 -35 44
-98 74 -58 27 -70 29 -145 25 -45 -3 -73 -1 -62 3 11 4 66 8 123 8 84 1 111
-3 144 -19z m-1267 -80 c-19 -37 -19 -73 1 -115 13 -28 23 -35 65 -44 85 -18
114 -15 142 18 33 39 42 93 23 131 -20 42 1 40 43 -4 38 -39 56 -99 35 -117
-15 -12 -20 -34 -6 -25 5 3 14 -22 21 -54 12 -53 10 -130 -5 -183 -13 -44
-171 -68 -309 -47 -93 14 -140 33 -176 73 -25 28 -66 113 -49 102 4 -2 8 6 8
19 0 38 24 83 53 100 35 21 51 20 82 -4 14 -11 29 -20 34 -20 4 0 0 5 -9 11
-10 5 -18 16 -18 23 0 8 -7 19 -15 26 -21 17 -19 38 7 76 17 25 61 58 86 63 1
1 -4 -12 -13 -29z m1163 -16 c2 -13 -4 -24 -14 -28 -31 -12 -62 35 -31 47 23
10 42 2 45 -19z m-938 -66 c0 -4 -6 -8 -14 -8 -8 0 -17 4 -20 8 -2 4 4 8 15 8
10 0 19 -4 19 -8z m-589 -15 c13 -16 12 -17 -3 -4 -10 7 -18 15 -18 17 0 8 8
3 21 -13z m-17 -45 c66 -32 77 -71 60 -203 -6 -55 -14 -154 -17 -220 -3 -66
-8 -128 -12 -137 -7 -19 -35 -25 -35 -8 0 5 -8 7 -17 3 -10 -3 -15 -3 -11 2 4
4 1 14 -7 21 -7 7 -16 32 -20 54 -4 22 -10 40 -15 40 -4 0 -6 8 -3 19 2 10 -1
24 -9 32 -16 17 -15 170 2 299 19 137 15 132 84 98z m-243 -40 c12 -23 27 -60
34 -82 l12 -41 7 45 c5 25 12 52 17 60 10 15 3 -40 -11 -90 -7 -27 6 -80 20
-80 5 0 12 -9 15 -20 4 -11 10 -18 14 -15 5 2 0 -25 -9 -60 -18 -67 -12 -95 9
-48 17 37 24 22 7 -18 -19 -47 -30 -99 -16 -79 13 19 13 5 0 -42 -13 -46 -56
-84 -76 -67 -8 6 -14 26 -14 44 0 24 6 34 25 43 31 14 31 21 -1 84 -24 47 -26
58 -19 118 14 117 11 161 -17 228 -30 71 -28 81 3 20z m445 -279 c4 -8 1 -8
-14 0 -12 6 -24 16 -28 22 -4 8 -1 8 14 0 12 -6 24 -16 28 -22z m534 -60 c0
-6 -20 -52 -44 -102 -24 -51 -48 -103 -51 -116 -8 -28 -52 -71 -71 -71 -8 0
-14 -6 -14 -13 0 -8 -20 -24 -44 -37 -38 -19 -49 -21 -78 -11 -40 13 -81 62
-114 138 -29 64 -28 101 3 125 21 18 149 47 208 49 17 0 59 11 95 23 73 26
110 31 110 15z m-847 -72 c7 4 8 0 4 -11 -4 -10 -7 -47 -7 -82 0 -38 -4 -64
-11 -64 -6 0 -9 30 -7 85 1 47 4 81 6 75 2 -5 9 -7 15 -3z m1571 -382 c27 -27
33 -195 8 -231 -12 -16 -60 -44 -77 -44 -9 0 -13 -4 -10 -10 8 -13 -1 -13 -27
1 -16 9 -19 8 -13 -2 6 -9 3 -10 -11 -5 -10 4 -23 9 -29 10 -5 1 -15 5 -22 9
-6 4 -14 3 -18 -3 -9 -14 -65 54 -65 79 0 11 4 21 10 21 5 0 22 8 38 18 28 17
26 17 -132 17 -165 1 -204 7 -300 48 -69 29 -46 35 154 38 91 2 131 5 90 6
-41 2 -79 8 -83 12 -10 10 282 26 309 17 11 -3 48 3 84 13 81 24 76 24 94 6z
m-28 -1113 c6 -27 2 -38 -21 -62 -35 -37 -103 -66 -189 -81 -82 -14 -161 -8
-287 22 -77 18 -89 23 -73 32 10 6 21 10 24 10 3 -1 14 6 25 16 11 10 42 26
68 35 26 10 61 29 76 42 16 13 32 24 37 24 15 0 205 133 223 156 22 28 38 31
44 7 3 -10 6 -2 7 17 1 27 9 9 31 -75 16 -60 32 -125 35 -143z"/>
<path d="M2045 3331 c3 -19 10 -40 17 -48 10 -12 13 -12 21 3 7 13 7 19 -1 22
-7 2 -12 16 -12 30 0 19 -3 23 -9 13 -7 -11 -10 -11 -15 0 -3 8 -4 -1 -1 -20z"/>
<path d="M3483 2853 c9 -2 23 -2 30 0 6 3 -1 5 -18 5 -16 0 -22 -2 -12 -5z"/>
<path d="M3398 2843 c12 -2 32 -2 45 0 12 2 2 4 -23 4 -25 0 -35 -2 -22 -4z"/>
<path d="M3520 5757 c0 -3 12 -12 26 -22 15 -9 23 -12 20 -6 -7 11 -46 35 -46
28z"/>
<path d="M3308 5713 c7 -3 16 -2 19 1 4 3 -2 6 -13 5 -11 0 -14 -3 -6 -6z"/>
<path d="M3333 5673 c9 -2 25 -2 35 0 9 3 1 5 -18 5 -19 0 -27 -2 -17 -5z"/>
<path d="M3418 5633 c7 -3 16 -2 19 1 4 3 -2 6 -13 5 -11 0 -14 -3 -6 -6z"/>
<path d="M2647 5434 c4 -12 3 -15 -5 -10 -8 5 -10 2 -6 -8 7 -18 24 -21 24 -5
0 8 5 8 15 -1 8 -7 15 -9 15 -4 0 5 -12 17 -25 27 -23 16 -24 16 -18 1z"/>
<path d="M1890 5053 c-7 -21 -21 -53 -32 -71 -11 -18 -18 -36 -14 -39 3 -4 6
-1 6 5 0 8 21 12 63 11 62 -1 64 -2 15 -13 -15 -3 -37 -20 -49 -37 l-21 -30
72 36 c70 35 71 37 56 58 -9 12 -29 43 -44 69 -15 26 -30 48 -34 48 -3 0 -12
-17 -18 -37z"/>
<path d="M1796 4928 c-3 -13 -6 -40 -6 -61 l0 -39 27 32 c21 26 25 36 17 58
-12 34 -30 39 -38 10z"/>
<path d="M1908 4884 c-38 -20 -36 -28 2 -9 17 9 30 18 30 20 0 7 -1 6 -32 -11z"/>
<path d="M4335 3856 c-24 -24 -35 -53 -15 -41 6 4 13 -7 16 -25 7 -34 29 -50
68 -50 24 0 26 4 26 43 0 86 -46 122 -95 73z"/>
<path d="M4244 3148 l-19 -23 23 19 c21 18 27 26 19 26 -2 0 -12 -10 -23 -22z"/>
</g>
</svg>
